<svg xmlns="http://www.w3.org/2000/svg" viewBox="0 0 900 260" width="900" height="260">
  <defs>
    <style>@import url('https://fonts.googleapis.com/css2?family=Inter:wght@300;600&amp;display=swap');</style>
  </defs>
  <rect width="900" height="260" rx="12" fill="#ffffff"/>
  <rect width="900" height="260" rx="12" fill="none" stroke="#e0e0e0" stroke-width="1"/>
  <g transform="translate(50, 30)">
    <circle cx="100" cy="100" r="94" fill="#1a1a1a"/>
    <g transform="translate(100,100) scale(0.8) translate(-100,-100)">
      <path d="M105.5,94.2 L105.5,93.8 L105.6,93.2 L105.8,92.6 L105.9,92.1 L106.1,91.5 L106.3,91.0 L106.5,90.5 L106.7,90.0 L107.0,89.6 L107.3,89.1 L107.6,88.7 L107.9,88.2 L108.2,87.8 L108.6,87.4 L109.0,87.0 L109.4,86.7 L109.8,86.3 L110.3,85.9 L110.7,85.6 L111.2,85.3 L111.7,85.0 L112.3,84.7 L112.8,84.4 L113.4,84.2 L114.0,84.0 L114.6,83.8 L115.2,83.6 L115.8,83.4 L116.5,83.3 L117.1,83.1 L117.8,83.1 L118.5,83.0 L119.2,82.9 L119.9,82.9 L120.6,82.9 L121.3,82.9 L122.0,83.0 L122.8,83.1 L123.5,83.2 L124.3,83.3 L125.1,83.5 L125.8,83.7 L126.6,83.9 L127.3,84.1 L128.1,84.4 L128.9,84.7 L129.6,85.0 L130.4,85.4 L131.2,85.8 L131.9,86.2 L132.7,86.6 L133.4,87.1 L134.2,87.6 L134.9,88.1 L135.6,88.7 L136.3,89.3 L137.0,89.9 L137.7,90.5 L138.4,91.2 L139.1,91.9 L139.7,92.6 L140.3,93.3 L141.0,94.1 L141.6,94.9 L142.2,95.7 L142.7,96.6 L143.3,97.5 L143.8,98.3 L144.3,99.3 L144.8,100.2 L145.2,101.2 L145.7,102.1 L146.1,103.1 L146.5,104.2 L146.8,105.2 L147.1,106.3 L147.5,107.3 L147.7,108.4 L148.0,109.5 L148.2,110.7 L148.4,111.8 L148.6,113.0 L148.7,114.1 L148.8,115.3 L148.9,116.5 L148.9,117.7 L148.9,118.9 L148.9,120.1 L148.8,121.3 L148.7,122.5 L148.6,123.8 L148.4,125.0 L148.2,126.2 L148.0,127.5 L147.7,128.7 L147.4,130.0 L147.1,131.2 L146.7,132.4 L146.3,133.7 L145.9,134.9 L145.4,136.1 L144.9,137.4 L144.4,138.6 L143.8,139.8 L143.2,141.0 L142.5,142.2 L141.9,143.4 L141.2,144.5 L140.4,145.7 L139.6,146.8 L138.8,148.0 L138.0,149.1 L137.1,150.2 L136.2,151.2 L135.2,152.3 L134.3,153.3 L133.3,154.4 L132.2,155.3 L131.2,156.3 L130.1,157.3 L128.9,158.2 L127.8,159.1 L126.6,160.0 L125.4,160.8 L124.2,161.7 L122.9,162.4 L121.6,163.2 L120.3,164.0 L119.0,164.7 L117.6,165.3 L116.3,166.0 L114.9,166.6 L113.5,167.2 L112.0,167.7 L110.6,168.2 L109.1,168.7 L107.6,169.1 L106.1,169.5 L104.6,169.9 L103.1,170.2 L101.5,170.5 L100.0,170.8 L98.4,171.0 L96.9,171.2 L95.3,171.3 L93.7,171.4 L92.1,171.5 L90.5,171.5 L88.9,171.5 L87.3,171.4 L85.7,171.3 L84.0,171.2 L82.4,171.0 L80.8,170.8 L79.2,170.6 L77.6,170.3 L76.0,169.9 L74.4,169.5 L72.8,169.1 L71.2,168.7 L69.6,168.2 L68.1,167.6 L66.5,167.1 L65.0,166.4 L63.4,165.8 L61.9,165.1 L60.4,164.3 L58.9,163.6 L57.5,162.8 L56.0,161.9 L54.6,161.0 L53.2,160.1 L51.8,159.2 L50.4,158.2 L49.1,157.1 L47.7,156.1 L46.4,155.0 L45.2,153.9 L43.9,152.7 L42.7,151.5 L41.5,150.3 L40.4,149.0 L39.2,147.8 L38.1,146.5 L37.0,145.1 L36.0,143.8 L35.0,142.4 L34.0,141.0 L33.1,139.5 L32.2,138.0 L31.3,136.6 L30.5,135.1 L29.7,133.5 L29.0,132.0 L28.2,130.4 L27.6,128.8 L26.9,127.2 L26.3,125.6 L25.8,124.0 L25.8,124.0 L26.3,125.6 L26.9,127.2 L27.5,128.8 L28.2,130.4 L28.9,132.0 L29.6,133.6 L30.4,135.1 L31.2,136.6 L32.0,138.1 L32.9,139.6 L33.8,141.1 L34.8,142.5 L35.8,143.9 L36.8,145.3 L37.8,146.7 L38.9,148.0 L40.0,149.3 L41.2,150.6 L42.3,151.9 L43.5,153.1 L44.8,154.3 L46.0,155.5 L47.3,156.6 L48.6,157.7 L50.0,158.8 L51.3,159.8 L52.7,160.8 L54.1,161.8 L55.5,162.7 L57.0,163.6 L58.5,164.4 L60.0,165.3 L61.5,166.0 L63.0,166.8 L64.5,167.5 L66.1,168.2 L67.6,168.8 L69.2,169.4 L70.8,169.9 L72.4,170.4 L74.0,170.9 L75.7,171.3 L77.3,171.7 L78.9,172.1 L80.6,172.4 L82.2,172.7 L83.9,172.9 L85.5,173.1 L87.2,173.2 L88.8,173.3 L90.5,173.4 L92.1,173.4 L93.8,173.4 L95.4,173.3 L97.0,173.2 L98.7,173.1 L100.3,172.9 L101.9,172.7 L103.5,172.5 L105.1,172.2 L106.7,171.8 L108.2,171.5 L109.8,171.1 L111.3,170.6 L112.9,170.1 L114.4,169.6 L115.9,169.1 L117.4,168.5 L118.8,167.9 L120.3,167.2 L121.7,166.5 L123.1,165.8 L124.4,165.0 L125.8,164.2 L127.1,163.4 L128.4,162.6 L129.7,161.7 L130.9,160.8 L132.2,159.8 L133.3,158.9 L134.5,157.9 L135.6,156.9 L136.8,155.8 L137.8,154.8 L138.9,153.7 L139.9,152.6 L140.9,151.4 L141.8,150.3 L142.7,149.1 L143.6,147.9 L144.5,146.7 L145.3,145.5 L146.1,144.3 L146.8,143.0 L147.5,141.7 L148.2,140.5 L148.9,139.2 L149.5,137.9 L150.0,136.5 L150.6,135.2 L151.1,133.9 L151.5,132.6 L151.9,131.2 L152.3,129.9 L152.7,128.5 L153.0,127.2 L153.3,125.8 L153.5,124.5 L153.7,123.1 L153.9,121.8 L154.0,120.4 L154.1,119.1 L154.2,117.7 L154.2,116.4 L154.2,115.0 L154.1,113.7 L154.0,112.4 L153.9,111.1 L153.8,109.8 L153.6,108.5 L153.4,107.2 L153.1,106.0 L152.8,104.7 L152.5,103.5 L152.2,102.3 L151.8,101.1 L151.4,99.9 L150.9,98.7 L150.5,97.6 L150.0,96.5 L149.4,95.4 L148.9,94.3 L148.3,93.2 L147.7,92.2 L147.1,91.2 L146.4,90.2 L145.7,89.2 L145.0,88.3 L144.3,87.4 L143.5,86.5 L142.7,85.6 L142.0,84.8 L141.1,84.0 L140.3,83.2 L139.5,82.4 L138.6,81.7 L137.7,81.0 L136.8,80.4 L135.9,79.8 L135.0,79.2 L134.0,78.6 L133.1,78.1 L132.1,77.6 L131.2,77.1 L130.2,76.7 L129.2,76.3 L128.2,75.9 L127.2,75.6 L126.2,75.3 L125.2,75.1 L124.2,74.8 L123.2,74.6 L122.2,74.5 L121.2,74.4 L120.1,74.3 L119.1,74.2 L118.1,74.2 L117.1,74.3 L116.1,74.3 L115.1,74.4 L114.2,74.5 L113.2,74.7 L112.2,74.9 L111.3,75.1 L110.3,75.4 L109.4,75.7 L108.5,76.1 L107.6,76.4 L106.7,76.9 L105.8,77.3 L105.0,77.8 L104.1,78.3 L103.3,78.9 L102.6,79.5 L101.8,80.1 L101.1,80.8 L100.4,81.5 L99.7,82.2 L99.0,83.0 L98.4,83.8 L97.8,84.6 L97.3,85.5 L96.8,86.4 L96.3,87.4 L95.8,88.4 L95.4,89.5 L95.1,90.6 L94.8,91.9 L94.5,93.8 Z" fill="#E8600A"/>
      <path d="M105.5,94.2 L105.5,93.8 L105.6,93.2 L105.8,92.6 L105.9,92.1 L106.1,91.5 L106.3,91.0 L106.5,90.5 L106.7,90.0 L107.0,89.6 L107.3,89.1 L107.6,88.7 L107.9,88.2 L108.2,87.8 L108.6,87.4 L109.0,87.0 L109.4,86.7 L109.8,86.3 L110.3,85.9 L110.7,85.6 L111.2,85.3 L111.7,85.0 L112.3,84.7 L112.8,84.4 L113.4,84.2 L114.0,84.0 L114.6,83.8 L115.2,83.6 L115.8,83.4 L116.5,83.3 L117.1,83.1 L117.8,83.1 L118.5,83.0 L119.2,82.9 L119.9,82.9 L120.6,82.9 L121.3,82.9 L122.0,83.0 L122.8,83.1 L123.5,83.2 L124.3,83.3 L125.1,83.5 L125.8,83.7 L126.6,83.9 L127.3,84.1 L128.1,84.4 L128.9,84.7 L129.6,85.0 L130.4,85.4 L131.2,85.8 L131.9,86.2 L132.7,86.6 L133.4,87.1 L134.2,87.6 L134.9,88.1 L135.6,88.7 L136.3,89.3 L137.0,89.9 L137.7,90.5 L138.4,91.2 L139.1,91.9 L139.7,92.6 L140.3,93.3 L141.0,94.1 L141.6,94.9 L142.2,95.7 L142.7,96.6 L143.3,97.5 L143.8,98.3 L144.3,99.3 L144.8,100.2 L145.2,101.2 L145.7,102.1 L146.1,103.1 L146.5,104.2 L146.8,105.2 L147.1,106.3 L147.5,107.3 L147.7,108.4 L148.0,109.5 L148.2,110.7 L148.4,111.8 L148.6,113.0 L148.7,114.1 L148.8,115.3 L148.9,116.5 L148.9,117.7 L148.9,118.9 L148.9,120.1 L148.8,121.3 L148.7,122.5 L148.6,123.8 L148.4,125.0 L148.2,126.2 L148.0,127.5 L147.7,128.7 L147.4,130.0 L147.1,131.2 L146.7,132.4 L146.3,133.7 L145.9,134.9 L145.4,136.1 L144.9,137.4 L144.4,138.6 L143.8,139.8 L143.2,141.0 L142.5,142.2 L141.9,143.4 L141.2,144.5 L140.4,145.7 L139.6,146.8 L138.8,148.0 L138.0,149.1 L137.1,150.2 L136.2,151.2 L135.2,152.3 L134.3,153.3 L133.3,154.4 L132.2,155.3 L131.2,156.3 L130.1,157.3 L128.9,158.2 L127.8,159.1 L126.6,160.0 L125.4,160.8 L124.2,161.7 L122.9,162.4 L121.6,163.2 L120.3,164.0 L119.0,164.7 L117.6,165.3 L116.3,166.0 L114.9,166.6 L113.5,167.2 L112.0,167.7 L110.6,168.2 L109.1,168.7 L107.6,169.1 L106.1,169.5 L104.6,169.9 L103.1,170.2 L101.5,170.5 L100.0,170.8 L98.4,171.0 L96.9,171.2 L95.3,171.3 L93.7,171.4 L92.1,171.5 L90.5,171.5 L88.9,171.5 L87.3,171.4 L85.7,171.3 L84.0,171.2 L82.4,171.0 L80.8,170.8 L79.2,170.6 L77.6,170.3 L76.0,169.9 L74.4,169.5 L72.8,169.1 L71.2,168.7 L69.6,168.2 L68.1,167.6 L66.5,167.1 L65.0,166.4 L63.4,165.8 L61.9,165.1 L60.4,164.3 L58.9,163.6 L57.5,162.8 L56.0,161.9 L54.6,161.0 L53.2,160.1 L51.8,159.2 L50.4,158.2 L49.1,157.1 L47.7,156.1 L46.4,155.0 L45.2,153.9 L43.9,152.7 L42.7,151.5 L41.5,150.3 L40.4,149.0 L39.2,147.8 L38.1,146.5 L37.0,145.1 L36.0,143.8 L35.0,142.4 L34.0,141.0 L33.1,139.5 L32.2,138.0 L31.3,136.6 L30.5,135.1 L29.7,133.5 L29.0,132.0 L28.2,130.4 L27.6,128.8 L26.9,127.2 L26.3,125.6 L25.8,124.0 L25.8,124.0 L26.3,125.6 L26.9,127.2 L27.5,128.8 L28.2,130.4 L28.9,132.0 L29.6,133.6 L30.4,135.1 L31.2,136.6 L32.0,138.1 L32.9,139.6 L33.8,141.1 L34.8,142.5 L35.8,143.9 L36.8,145.3 L37.8,146.7 L38.9,148.0 L40.0,149.3 L41.2,150.6 L42.3,151.9 L43.5,153.1 L44.8,154.3 L46.0,155.5 L47.3,156.6 L48.6,157.7 L50.0,158.8 L51.3,159.8 L52.7,160.8 L54.1,161.8 L55.5,162.7 L57.0,163.6 L58.5,164.4 L60.0,165.3 L61.5,166.0 L63.0,166.8 L64.5,167.5 L66.1,168.2 L67.6,168.8 L69.2,169.4 L70.8,169.9 L72.4,170.4 L74.0,170.9 L75.7,171.3 L77.3,171.7 L78.9,172.1 L80.6,172.4 L82.2,172.7 L83.9,172.9 L85.5,173.1 L87.2,173.2 L88.8,173.3 L90.5,173.4 L92.1,173.4 L93.8,173.4 L95.4,173.3 L97.0,173.2 L98.7,173.1 L100.3,172.9 L101.9,172.7 L103.5,172.5 L105.1,172.2 L106.7,171.8 L108.2,171.5 L109.8,171.1 L111.3,170.6 L112.9,170.1 L114.4,169.6 L115.9,169.1 L117.4,168.5 L118.8,167.9 L120.3,167.2 L121.7,166.5 L123.1,165.8 L124.4,165.0 L125.8,164.2 L127.1,163.4 L128.4,162.6 L129.7,161.7 L130.9,160.8 L132.2,159.8 L133.3,158.9 L134.5,157.9 L135.6,156.9 L136.8,155.8 L137.8,154.8 L138.9,153.7 L139.9,152.6 L140.9,151.4 L141.8,150.3 L142.7,149.1 L143.6,147.9 L144.5,146.7 L145.3,145.5 L146.1,144.3 L146.8,143.0 L147.5,141.7 L148.2,140.5 L148.9,139.2 L149.5,137.9 L150.0,136.5 L150.6,135.2 L151.1,133.9 L151.5,132.6 L151.9,131.2 L152.3,129.9 L152.7,128.5 L153.0,127.2 L153.3,125.8 L153.5,124.5 L153.7,123.1 L153.9,121.8 L154.0,120.4 L154.1,119.1 L154.2,117.7 L154.2,116.4 L154.2,115.0 L154.1,113.7 L154.0,112.4 L153.9,111.1 L153.8,109.8 L153.6,108.5 L153.4,107.2 L153.1,106.0 L152.8,104.7 L152.5,103.5 L152.2,102.3 L151.8,101.1 L151.4,99.9 L150.9,98.7 L150.5,97.6 L150.0,96.5 L149.4,95.4 L148.9,94.3 L148.3,93.2 L147.7,92.2 L147.1,91.2 L146.4,90.2 L145.7,89.2 L145.0,88.3 L144.3,87.4 L143.5,86.5 L142.7,85.6 L142.0,84.8 L141.1,84.0 L140.3,83.2 L139.5,82.4 L138.6,81.7 L137.7,81.0 L136.8,80.4 L135.9,79.8 L135.0,79.2 L134.0,78.6 L133.1,78.1 L132.1,77.6 L131.2,77.1 L130.2,76.7 L129.2,76.3 L128.2,75.9 L127.2,75.6 L126.2,75.3 L125.2,75.1 L124.2,74.8 L123.2,74.6 L122.2,74.5 L121.2,74.4 L120.1,74.3 L119.1,74.2 L118.1,74.2 L117.1,74.3 L116.1,74.3 L115.1,74.4 L114.2,74.5 L113.2,74.7 L112.2,74.9 L111.3,75.1 L110.3,75.4 L109.4,75.7 L108.5,76.1 L107.6,76.4 L106.7,76.9 L105.8,77.3 L105.0,77.8 L104.1,78.3 L103.3,78.9 L102.6,79.5 L101.8,80.1 L101.1,80.8 L100.4,81.5 L99.7,82.2 L99.0,83.0 L98.4,83.8 L97.8,84.6 L97.3,85.5 L96.8,86.4 L96.3,87.4 L95.8,88.4 L95.4,89.5 L95.1,90.6 L94.8,91.9 L94.5,93.8 Z" fill="#E8600A" transform="rotate(120 100 100)"/>
      <path d="M105.5,94.2 L105.5,93.8 L105.6,93.2 L105.8,92.6 L105.9,92.1 L106.1,91.5 L106.3,91.0 L106.5,90.5 L106.7,90.0 L107.0,89.6 L107.3,89.1 L107.6,88.7 L107.9,88.2 L108.2,87.8 L108.6,87.4 L109.0,87.0 L109.4,86.7 L109.8,86.3 L110.3,85.9 L110.7,85.6 L111.2,85.3 L111.7,85.0 L112.3,84.7 L112.8,84.4 L113.4,84.2 L114.0,84.0 L114.6,83.8 L115.2,83.6 L115.8,83.4 L116.5,83.3 L117.1,83.1 L117.8,83.1 L118.5,83.0 L119.2,82.9 L119.9,82.9 L120.6,82.9 L121.3,82.9 L122.0,83.0 L122.8,83.1 L123.5,83.2 L124.3,83.3 L125.1,83.5 L125.8,83.7 L126.6,83.9 L127.3,84.1 L128.1,84.4 L128.9,84.7 L129.6,85.0 L130.4,85.4 L131.2,85.8 L131.9,86.2 L132.7,86.6 L133.4,87.1 L134.2,87.6 L134.9,88.1 L135.6,88.7 L136.3,89.3 L137.0,89.9 L137.7,90.5 L138.4,91.2 L139.1,91.9 L139.7,92.6 L140.3,93.3 L141.0,94.1 L141.6,94.9 L142.2,95.7 L142.7,96.6 L143.3,97.5 L143.8,98.3 L144.3,99.3 L144.8,100.2 L145.2,101.2 L145.7,102.1 L146.1,103.1 L146.5,104.2 L146.8,105.2 L147.1,106.3 L147.5,107.3 L147.7,108.4 L148.0,109.5 L148.2,110.7 L148.4,111.8 L148.6,113.0 L148.7,114.1 L148.8,115.3 L148.9,116.5 L148.9,117.7 L148.9,118.9 L148.9,120.1 L148.8,121.3 L148.7,122.5 L148.6,123.8 L148.4,125.0 L148.2,126.2 L148.0,127.5 L147.7,128.7 L147.4,130.0 L147.1,131.2 L146.7,132.4 L146.3,133.7 L145.9,134.9 L145.4,136.1 L144.9,137.4 L144.4,138.6 L143.8,139.8 L143.2,141.0 L142.5,142.2 L141.9,143.4 L141.2,144.5 L140.4,145.7 L139.6,146.8 L138.8,148.0 L138.0,149.1 L137.1,150.2 L136.2,151.2 L135.2,152.3 L134.3,153.3 L133.3,154.4 L132.2,155.3 L131.2,156.3 L130.1,157.3 L128.9,158.2 L127.8,159.1 L126.6,160.0 L125.4,160.8 L124.2,161.7 L122.9,162.4 L121.6,163.2 L120.3,164.0 L119.0,164.7 L117.6,165.3 L116.3,166.0 L114.9,166.6 L113.5,167.2 L112.0,167.7 L110.6,168.2 L109.1,168.7 L107.6,169.1 L106.1,169.5 L104.6,169.9 L103.1,170.2 L101.5,170.5 L100.0,170.8 L98.4,171.0 L96.9,171.2 L95.3,171.3 L93.7,171.4 L92.1,171.5 L90.5,171.5 L88.9,171.5 L87.3,171.4 L85.7,171.3 L84.0,171.2 L82.4,171.0 L80.8,170.8 L79.2,170.6 L77.6,170.3 L76.0,169.9 L74.4,169.5 L72.8,169.1 L71.2,168.7 L69.6,168.2 L68.1,167.6 L66.5,167.1 L65.0,166.4 L63.4,165.8 L61.9,165.1 L60.4,164.3 L58.9,163.6 L57.5,162.8 L56.0,161.9 L54.6,161.0 L53.2,160.1 L51.8,159.2 L50.4,158.2 L49.1,157.1 L47.7,156.1 L46.4,155.0 L45.2,153.9 L43.9,152.7 L42.7,151.5 L41.5,150.3 L40.4,149.0 L39.2,147.8 L38.1,146.5 L37.0,145.1 L36.0,143.8 L35.0,142.4 L34.0,141.0 L33.1,139.5 L32.2,138.0 L31.3,136.6 L30.5,135.1 L29.7,133.5 L29.0,132.0 L28.2,130.4 L27.6,128.8 L26.9,127.2 L26.3,125.6 L25.8,124.0 L25.8,124.0 L26.3,125.6 L26.9,127.2 L27.5,128.8 L28.2,130.4 L28.9,132.0 L29.6,133.6 L30.4,135.1 L31.2,136.6 L32.0,138.1 L32.9,139.6 L33.8,141.1 L34.8,142.5 L35.8,143.9 L36.8,145.3 L37.8,146.7 L38.9,148.0 L40.0,149.3 L41.2,150.6 L42.3,151.9 L43.5,153.1 L44.8,154.3 L46.0,155.5 L47.3,156.6 L48.6,157.7 L50.0,158.8 L51.3,159.8 L52.7,160.8 L54.1,161.8 L55.5,162.7 L57.0,163.6 L58.5,164.4 L60.0,165.3 L61.5,166.0 L63.0,166.8 L64.5,167.5 L66.1,168.2 L67.6,168.8 L69.2,169.4 L70.8,169.9 L72.4,170.4 L74.0,170.9 L75.7,171.3 L77.3,171.7 L78.9,172.1 L80.6,172.4 L82.2,172.7 L83.9,172.9 L85.5,173.1 L87.2,173.2 L88.8,173.3 L90.5,173.4 L92.1,173.4 L93.8,173.4 L95.4,173.3 L97.0,173.2 L98.7,173.1 L100.3,172.9 L101.9,172.7 L103.5,172.5 L105.1,172.2 L106.7,171.8 L108.2,171.5 L109.8,171.1 L111.3,170.6 L112.9,170.1 L114.4,169.6 L115.9,169.1 L117.4,168.5 L118.8,167.9 L120.3,167.2 L121.7,166.5 L123.1,165.8 L124.4,165.0 L125.8,164.2 L127.1,163.4 L128.4,162.6 L129.7,161.7 L130.9,160.8 L132.2,159.8 L133.3,158.9 L134.5,157.9 L135.6,156.9 L136.8,155.8 L137.8,154.8 L138.9,153.7 L139.9,152.6 L140.9,151.4 L141.8,150.3 L142.7,149.1 L143.6,147.9 L144.5,146.7 L145.3,145.5 L146.1,144.3 L146.8,143.0 L147.5,141.7 L148.2,140.5 L148.9,139.2 L149.5,137.9 L150.0,136.5 L150.6,135.2 L151.1,133.9 L151.5,132.6 L151.9,131.2 L152.3,129.9 L152.7,128.5 L153.0,127.2 L153.3,125.8 L153.5,124.5 L153.7,123.1 L153.9,121.8 L154.0,120.4 L154.1,119.1 L154.2,117.7 L154.2,116.4 L154.2,115.0 L154.1,113.7 L154.0,112.4 L153.9,111.1 L153.8,109.8 L153.6,108.5 L153.4,107.2 L153.1,106.0 L152.8,104.7 L152.5,103.5 L152.2,102.3 L151.8,101.1 L151.4,99.9 L150.9,98.7 L150.5,97.6 L150.0,96.5 L149.4,95.4 L148.9,94.3 L148.3,93.2 L147.7,92.2 L147.1,91.2 L146.4,90.2 L145.7,89.2 L145.0,88.3 L144.3,87.4 L143.5,86.5 L142.7,85.6 L142.0,84.8 L141.1,84.0 L140.3,83.2 L139.5,82.4 L138.6,81.7 L137.7,81.0 L136.8,80.4 L135.9,79.8 L135.0,79.2 L134.0,78.6 L133.1,78.1 L132.1,77.6 L131.2,77.1 L130.2,76.7 L129.2,76.3 L128.2,75.9 L127.2,75.6 L126.2,75.3 L125.2,75.1 L124.2,74.8 L123.2,74.6 L122.2,74.5 L121.2,74.4 L120.1,74.3 L119.1,74.2 L118.1,74.2 L117.1,74.3 L116.1,74.3 L115.1,74.4 L114.2,74.5 L113.2,74.7 L112.2,74.9 L111.3,75.1 L110.3,75.4 L109.4,75.7 L108.5,76.1 L107.6,76.4 L106.7,76.9 L105.8,77.3 L105.0,77.8 L104.1,78.3 L103.3,78.9 L102.6,79.5 L101.8,80.1 L101.1,80.8 L100.4,81.5 L99.7,82.2 L99.0,83.0 L98.4,83.8 L97.8,84.6 L97.3,85.5 L96.8,86.4 L96.3,87.4 L95.8,88.4 L95.4,89.5 L95.1,90.6 L94.8,91.9 L94.5,93.8 Z" fill="#E8600A" transform="rotate(240 100 100)"/>
    </g>
    <circle cx="100" cy="100" r="7" fill="#E8600A"/>
    <circle cx="100" cy="100" r="94" stroke="#E8600A" stroke-width="2" fill="none"/>
  </g>
  <text x="290" y="80" font-family="Inter, Helvetica, Arial, sans-serif" font-weight="600" font-size="40" fill="#1a1a1a" letter-spacing="1">HoudiniMCP</text>
  <text x="290" y="140" font-family="Inter, Helvetica, Arial, sans-serif" font-weight="600" font-size="28" fill="#E8600A">Talk to Houdini.</text>
  <text x="290" y="185" font-family="Inter, Helvetica, Arial, sans-serif" font-weight="300" font-size="20" fill="#555555">Every Node. Every Parameter. One Conversation.</text>
  <rect x="290" y="210" width="120" height="2" rx="1" fill="#E8600A" opacity="0.6"/>
</svg>