<svg xmlns="http://www.w3.org/2000/svg" viewBox="0 0 200 200" width="200" height="200">
  <!-- Inverse: Black circle with bold orange triskelion -->
  <circle cx="100" cy="100" r="94" fill="#1a1a1a"/>
  <g stroke="#E8600A" stroke-width="13" stroke-linecap="round" fill="none">
    <path d="M 100,100 C 96,74 116,52 100,30 C 84,8 50,20 52,48 C 54,68 72,74 80,62"/>
    <path d="M 100,100 C 96,74 116,52 100,30 C 84,8 50,20 52,48 C 54,68 72,74 80,62" transform="rotate(120 100 100)"/>
    <path d="M 100,100 C 96,74 116,52 100,30 C 84,8 50,20 52,48 C 54,68 72,74 80,62" transform="rotate(240 100 100)"/>
  </g>
  <!-- Orange center dot -->
  <circle cx="100" cy="100" r="7" fill="#E8600A"/>
  <!-- Thin orange ring border -->
  <circle cx="100" cy="100" r="94" stroke="#E8600A" stroke-width="2" fill="none"/>
</svg>
