<svg xmlns="http://www.w3.org/2000/svg" viewBox="0 0 200 200" width="200" height="200">
  <!-- Negative Space: Orange rounded square with triskelion cut out -->
  <defs>
    <mask id="tri-mask">
      <rect width="200" height="200" fill="white"/>
      <g stroke="black" stroke-width="14" stroke-linecap="round" fill="none">
        <path d="M 100,100 C 96,76 114,54 98,32 C 82,10 52,22 54,46 C 56,64 72,70 80,58"/>
        <path d="M 100,100 C 96,76 114,54 98,32 C 82,10 52,22 54,46 C 56,64 72,70 80,58" transform="rotate(120 100 100)"/>
        <path d="M 100,100 C 96,76 114,54 98,32 C 82,10 52,22 54,46 C 56,64 72,70 80,58" transform="rotate(240 100 100)"/>
      </g>
      <circle cx="100" cy="100" r="8" fill="black"/>
    </mask>
  </defs>
  <rect x="8" y="8" width="184" height="184" rx="28" fill="#E8600A" mask="url(#tri-mask)"/>
</svg>
