<svg xmlns="http://www.w3.org/2000/svg" viewBox="0 0 200 200" width="200" height="200">
  <!-- Classic: Orange circle with black Celtic triskelion -->
  <circle cx="100" cy="100" r="94" fill="#E8600A"/>
  <circle cx="100" cy="100" r="94" stroke="#1a1a1a" stroke-width="3" fill="none"/>
  <g stroke="#1a1a1a" stroke-width="11" stroke-linecap="round" fill="none">
    <path d="M 100,100 C 97,78 113,56 99,36 C 85,16 58,26 58,48 C 58,64 72,68 78,58"/>
    <path d="M 100,100 C 97,78 113,56 99,36 C 85,16 58,26 58,48 C 58,64 72,68 78,58" transform="rotate(120 100 100)"/>
    <path d="M 100,100 C 97,78 113,56 99,36 C 85,16 58,26 58,48 C 58,64 72,68 78,58" transform="rotate(240 100 100)"/>
  </g>
  <!-- Center dot -->
  <circle cx="100" cy="100" r="6" fill="#1a1a1a"/>
</svg>
